# xmcd CD database file
#
# Track frame offsets:
#	150
#	14750
#	26687
#	37400
#	55012
#	67112
#	80875
#	95302
#	111475
#	123300
#	142175
#	156650
#	172735
#	184600
#	199492
#	211275
#	222225
#	237920
#	250275
#
# Disc length: 3501 seconds
#
# Revision: 4
# Processed by: cddbd v1.5.1PL0 Copyright (c) Steve Scherf et al.
# Submitted via: CDex 1.51
#
DISCID=2a0dab13
DTITLE=麗莎 - 名曲精選 2
DYEAR=1979
DGENRE=New Age
TTITLE0=公子多情
TTITLE1=紅豆相思
TTITLE2=哥仔靚
TTITLE3=淒涼小夜曲
TTITLE4=薔薇之戀
TTITLE5=漁歌晚唱
TTITLE6=初戀
TTITLE7=一片情深
TTITLE8=永遠陪伴你
TTITLE9=絲絲淚
TTITLE10=相思淚盡人未歸
TTITLE11=斷腸花
TTITLE12=玉女情潮
TTITLE13=深閨夢裹人
TTITLE14=心中想念你
TTITLE15=春滿人間
TTITLE16=等待
TTITLE17=彩雲追月
TTITLE18=平湖秋月
EXTD=YEAR: 1979
EXTT0=
EXTT1=
EXTT2=
EXTT3=
EXTT4=
EXTT5=
EXTT6=
EXTT7=
EXTT8=
EXTT9=
EXTT10=
EXTT11=
EXTT12=
EXTT13=
EXTT14=
EXTT15=
EXTT16=
EXTT17=
EXTT18=
PLAYORDER=
